<?xml version="1.0" encoding="UTF-8" standalone="no"?>
<!-- Created with Inkscape (http://www.inkscape.org/) -->

<svg
   xmlns:dc="http://purl.org/dc/elements/1.1/"
   xmlns:cc="http://creativecommons.org/ns#"
   xmlns:rdf="http://www.w3.org/1999/02/22-rdf-syntax-ns#"
   xmlns:svg="http://www.w3.org/2000/svg"
   xmlns="http://www.w3.org/2000/svg"
   xmlns:sodipodi="http://sodipodi.sourceforge.net/DTD/sodipodi-0.dtd"
   xmlns:inkscape="http://www.inkscape.org/namespaces/inkscape"
   width="720"
   height="300"
   viewBox="0 0 190.5 79.37505"
   version="1.1"
   id="svg1195"
   inkscape:version="0.92.4 5da689c313, 2019-01-14"
   sodipodi:docname="restaurant.svg">
  <defs
     id="defs1189">
    <clipPath
       clipPathUnits="userSpaceOnUse"
       id="clipPath186">
      <path
         d="m 1007,4119.85 h 648.93 v 361.648 H 1007 Z"
         id="path184"
         inkscape:connector-curvature="0" />
    </clipPath>
  </defs>
  <sodipodi:namedview
     id="base"
     pagecolor="#ffffff"
     bordercolor="#666666"
     borderopacity="1.0"
     inkscape:pageopacity="0.0"
     inkscape:pageshadow="2"
     inkscape:zoom="0.49497475"
     inkscape:cx="364.13268"
     inkscape:cy="109.30113"
     inkscape:document-units="mm"
     inkscape:current-layer="layer1"
     showgrid="false"
     inkscape:window-width="1366"
     inkscape:window-height="720"
     inkscape:window-x="0"
     inkscape:window-y="20"
     inkscape:window-maximized="1"
     units="px" />
  <metadata
     id="metadata1192">
    <rdf:RDF>
      <cc:Work
         rdf:about="">
        <dc:format>image/svg+xml</dc:format>
        <dc:type
           rdf:resource="http://purl.org/dc/dcmitype/StillImage" />
        <dc:title></dc:title>
      </cc:Work>
    </rdf:RDF>
  </metadata>
  <g
     inkscape:label="Capa 1"
     inkscape:groupmode="layer"
     id="layer1"
     transform="translate(0,-217.62465)">
    <path
       d="M 28.998143,295.22902 H 1.4968291 c -0.53583153,0 -0.96987367,0.43373 -0.96987367,0.97016 0,0.53544 0.43404214,0.9702 0.96987367,0.9702 H 28.998143 c 0.535938,0 0.970395,-0.43476 0.970395,-0.9702 0,-0.53643 -0.434457,-0.97016 -0.970395,-0.97016"
       style="fill:#e74c3c;fill-opacity:1;fill-rule:nonzero;stroke:none;stroke-width:0.1037633"
       id="path164"
       inkscape:connector-curvature="0"
       inkscape:export-xdpi="96"
       inkscape:export-ydpi="96" />
    <g
       id="g166"
       transform="matrix(1.0376328,0,0,-1.0376328,-43.802697,684.11616)"
       style="fill:#e74c3c;fill-opacity:1"
       inkscape:export-xdpi="96"
       inkscape:export-ydpi="96">
      <text
         transform="matrix(0.999988,0.00482998,0.00482998,-0.999988,60.4016,387.509)"
         style="font-variant:normal;font-weight:normal;font-size:22.7137928px;font-family:BreeSerif;-inkscape-font-specification:BreeSerif-Regular;writing-mode:lr-tb;fill:#e74c3c;fill-opacity:1;fill-rule:nonzero;stroke:none"
         id="text170">
        <tspan
           x="0 15.581303 29.413973 42.633347 54.966496 70.888596 87.220314 102.80112 119.20072 136.57596"
           y="0"
           sodipodi:role="line"
           id="tspan168">RESTAURANT</tspan>
      </text>
    </g>
    <path
       d="m 127.5561,256.59794 c 0.16502,-1.36136 0.25001,-2.74557 0.25001,-4.15053 -9.5e-4,-18.9202 -15.3383,-34.25848 -34.259485,-34.25848 -18.920194,0 -34.258483,15.33828 -34.258898,34.25848 0,1.45373 0.09119,2.88671 0.267077,4.29371 l 1.283546,-0.16089 c -0.169121,-1.35409 -0.257332,-2.7331 -0.257332,-4.13288 9.62e-4,-9.10524 3.688781,-17.34198 9.656205,-23.30938 5.967426,-5.96639 14.204157,-9.65518 23.309382,-9.65518 9.105195,0 17.342955,3.68879 23.310375,9.65518 5.96639,5.9674 9.65518,14.20414 9.65518,23.30938 0,1.35204 -0.082,2.6854 -0.23971,3.99488 l 1.28353,0.1556"
       style="fill:#e74c3c;fill-opacity:1;fill-rule:nonzero;stroke:none;stroke-width:0.1037633"
       id="path172"
       inkscape:connector-curvature="0"
       inkscape:export-xdpi="96"
       inkscape:export-ydpi="96" />
    <text
       transform="matrix(1.0561735,-0.00203564,0.00227077,0.94680976,0,0)"
       style="font-variant:normal;font-weight:normal;font-size:7.41242838px;font-family:BreeSerif;-inkscape-font-specification:BreeSerif-Regular;writing-mode:lr-tb;fill:#e74c3c;fill-opacity:1;fill-rule:nonzero;stroke:none;stroke-width:0.91351068"
       id="text178"
       x="35.285236"
       y="313.68692"
       inkscape:export-xdpi="96"
       inkscape:export-ydpi="96">
      <tspan
         x="35.285236"
         y="313.68692"
         sodipodi:role="line"
         id="tspan176"
         style="font-size:8.30106258px;fill:#e74c3c;fill-opacity:1;stroke-width:0.91351068">OPEN SOLUTION SYSTEMS</tspan>
    </text>
    <g
       transform="matrix(0.10376329,0,0,-0.10376329,-43.802697,684.11616)"
       id="g180"
       style="fill:#e74c3c;fill-opacity:1"
       inkscape:export-xdpi="96"
       inkscape:export-ydpi="96">
      <g
         id="g182"
         clip-path="url(#clipPath186)"
         style="fill:#e74c3c;fill-opacity:1">
        <path
           d="m 1454.47,4330.7 c -8.58,-12.15 -17.14,-24.31 -25.84,-36.36 -6.1,-8.45 -12.47,-16.7 -18.64,-25.08 -6.76,-9.18 -15.36,-16.12 -25.42,-21.36 -3.9,-2.02 -7.77,-4.07 -11.6,-6.2 -7.96,-4.44 -13.86,-11.07 -19.31,-18.19 -5.38,-7.02 -10.85,-13.96 -16.45,-21.16 1.52,-1.72 3,-3.48 4.56,-5.17 26.24,-28.49 52.48,-56.97 78.71,-85.46 1.72,-1.86 3.55,-3.67 4.92,-5.77 4.39,-6.75 1.13,-15.89 -6.46,-18.54 -6.09,-2.13 -10.7,-0.73 -14.8,4.22 -20.94,25.28 -41.91,50.54 -62.87,75.8 -2.23,2.69 -4.46,5.38 -6.97,8.4 l -0.1,-1.76 c 1,-20.13 2.02,-40.26 3,-60.38 0.24,-4.93 0.43,-9.87 0.47,-14.8 0.07,-8.3 -7.03,-13.97 -15.09,-12.18 -5.07,1.13 -9.06,6.2 -8.86,11.67 0.41,11.85 0.93,23.69 1.49,35.54 0.66,14.02 1.4,28.04 2.13,42.49 l -1.4,-1.56 c -21.39,-27.3 -42.77,-54.6 -64.15,-81.9 -3.87,-4.93 -8.28,-6.24 -14.14,-4.85 -7.23,1.71 -13.04,12.69 -6.01,20.75 10.01,11.47 19.96,22.98 29.94,34.47 16.8,19.35 33.61,38.71 50.41,58.06 l 0.63,0.82 c -2.11,2.57 -4.21,5.16 -6.34,7.73 -6.68,8.08 -13.14,16.36 -21.47,22.89 -0.91,0.71 -1.72,1.55 -2.66,2.2 l -1.65,0.32 -0.4,1.6 -1.64,-0.84 -0.22,2.1 -1.85,-0.95 -0.11,2.06 -1.95,-0.81 0.17,2.21 -2.08,-0.87 0.25,2.25 -2.05,-0.76 0.27,2.26 -2.18,-0.84 0.49,2.27 -2.26,-0.7 0.55,2.26 -2.17,-0.64 0.37,2.11 -2.08,-0.45 0.44,2.03 -2.15,-0.4 0.5,2.06 -2.16,-0.45 0.54,2.08 -2.16,-0.4 0.56,2.05 -2.14,-0.37 0.54,2.11 -2.2,-0.47 0.68,2.28 c -0.81,-0.21 -1.48,-0.39 -2.4,-0.64 l 0.86,2.31 -2.37,-0.51 0.77,2.24 -2.11,-0.43 0.41,2.09 -2.12,-0.33 0.72,2.05 -2.3,-0.33 0.86,2.24 -2.34,-0.52 0.74,2.19 -2.19,-0.36 0.71,2.15 -2.26,-0.39 0.78,2.05 -2.19,-0.16 0.66,2.11 -2.19,-0.41 0.82,2.14 -2.26,-0.3 0.79,2.19 -2.28,-0.34 0.55,2.35 c -0.8,-0.12 -1.49,-0.23 -2.43,-0.37 l 0.85,2.36 c -0.91,-0.11 -1.61,-0.2 -2.54,-0.32 l 0.84,2.25 -2.4,-0.12 0.79,2.2 c -0.83,-0.04 -1.53,-0.08 -2.43,-0.12 l 0.85,2.19 h -2.41 l 0.95,2.26 c -0.91,-0.11 -1.63,-0.19 -2.57,-0.3 l 1.03,2.35 c -0.89,-0.04 -1.64,-0.08 -2.55,-0.12 l 1.07,2.24 c -0.84,0 -1.56,0 -2.49,0 l 1.02,2.2 h -2.46 l 1.1,2.31 c -0.94,-0.06 -1.65,-0.1 -2.6,-0.16 l 1.19,2.27 -2.37,0.11 1.03,2.15 c -0.83,0.05 -1.57,0.09 -2.51,0.15 l 1.31,2.13 c -0.91,0.05 -1.64,0.09 -2.54,0.14 l 1.29,2.21 -2.42,0.19 1.21,2.09 c -0.81,0.08 -1.52,0.15 -2.45,0.24 l 1.29,2.05 -2.37,0.35 1.34,2.07 c -0.78,0.12 -1.46,0.23 -2.37,0.37 l 1.38,2.11 c -0.81,0.12 -1.46,0.2 -2.39,0.33 l 1.51,2.13 c -0.86,0.12 -1.55,0.22 -2.47,0.35 l 1.6,2.06 c -0.8,0.18 -1.47,0.32 -2.4,0.53 l 1.62,1.94 -2.36,0.64 1.65,1.82 -2.24,0.8 1.68,1.78 -2.28,0.81 1.84,1.72 -2.29,0.96 1.85,1.59 -2.06,1.06 1.54,1.42 -1.68,1.39 c 1.44,0.77 1.58,1.61 0.34,2.32 0.34,1.38 0.7,2.65 0.99,3.93 0.46,1.99 1.58,3.39 3.66,3.64 2.1,0.26 3.89,-0.52 5.26,-2.17 6.25,-7.54 12.51,-15.09 18.77,-22.63 22.15,-26.68 44.34,-53.33 66.44,-80.05 5.1,-6.16 9.93,-12.56 14.89,-18.83 l 1.66,-1.82 c 0.12,1.7 0.27,3.02 0.32,4.34 0.44,10.2 0.78,20.41 1.32,30.61 0.55,10.62 -2.74,19.77 -9.76,27.73 -3.71,4.2 -7.38,8.49 -10.72,12.99 -7.47,10.08 -10.48,21.61 -10.14,34.02 0.61,21.58 8.35,40.46 22.14,56.9 1.91,2.27 4.35,4.18 6.81,5.88 4.08,2.78 8.36,2.63 12.55,0.03 4.03,-2.51 7.18,-5.95 9.95,-9.71 11.53,-15.69 18.36,-33.09 18.95,-52.72 0.45,-15.07 -4.26,-28.28 -14.17,-39.66 -2.88,-3.31 -5.73,-6.64 -8.51,-10.03 -5.32,-6.5 -8.14,-13.99 -7.92,-22.38 0.31,-11.92 0.95,-23.83 1.45,-35.75 l 0.17,-0.75 0.8,0.66 c 4.43,5.14 8.94,10.21 13.24,15.46 5.71,6.98 9.06,14.96 10.58,23.92 2.59,15.26 8.81,28.82 19.71,40.13 16.49,17.13 32.79,34.45 49.2,51.67 0.96,0.99 2.15,1.76 3.23,2.63 l 0.64,-0.6 c -0.6,-1.11 -1.08,-2.32 -1.83,-3.32 -8.1,-10.72 -16.18,-21.45 -24.38,-32.08 -4.36,-5.64 -8.99,-11.05 -13.41,-16.64 -1.44,-1.82 -2.66,-3.82 -3.82,-5.83 -0.71,-1.26 -0.82,-2.69 0.59,-3.67 1.44,-1.01 2.53,-0.08 3.39,0.9 3.93,4.47 7.81,9.01 11.7,13.52 10.45,12.17 20.88,24.35 31.38,36.48 1.44,1.65 3.22,3.01 4.84,4.5 l 0.88,-0.59 c -0.54,-1.29 -0.87,-2.73 -1.66,-3.85 -3.04,-4.3 -6.15,-8.57 -9.39,-12.73 -9.73,-12.48 -19.54,-24.91 -29.3,-37.37 -1.14,-1.45 -2.3,-2.91 -3.2,-4.51 -0.79,-1.41 -1.16,-2.99 0.55,-4.19 1.73,-1.22 3.03,-0.34 4.09,0.95 4.61,5.53 9.13,11.12 13.74,16.65 9.21,11.04 18.41,22.08 27.71,33.06 1.39,1.65 3.19,2.96 4.88,4.34 l 1.69,0.36 -0.01,-1.7 c -0.88,-1.78 -1.7,-3.63 -2.89,-5.18 -11.99,-15.5 -24.06,-30.95 -36.08,-46.43 -1.42,-1.83 -2.7,-3.78 -3.96,-5.74 -0.95,-1.49 -0.71,-2.84 0.75,-3.96 1.56,-1.19 2.46,0.04 3.25,0.98 6.33,7.47 12.57,15.04 18.92,22.5 7.72,9.08 15.51,18.11 23.33,27.11 1.21,1.38 2.71,2.5 4.13,3.69 l 1.66,0.87 0.49,-0.46 c -0.96,-1.69 -1.78,-3.47 -2.89,-5.04 z m -128.64,123.91 c -162.63,0 -294.47,-131.84 -294.47,-294.48 0,-162.63 131.84,-294.48 294.47,-294.48 162.65,0 294.49,131.85 294.49,294.48 0,162.64 -131.84,294.48 -294.49,294.48"
           style="fill:#e74c3c;fill-opacity:1;fill-rule:nonzero;stroke:none"
           id="path188"
           inkscape:connector-curvature="0" />
      </g>
    </g>
    <path
       d="m 175.61617,280.66686 9.76202,-23.78667 c 0.082,-0.20031 0.0591,-0.42649 -0.061,-0.606 -0.12029,-0.17942 -0.32165,-0.28648 -0.53749,-0.28648 H 6.7900005 c -0.2099225,0 -0.4057152,0.10064 -0.5273262,0.27295 -0.1216234,0.17119 -0.1524194,0.38914 -0.083537,0.58733 l 8.3075997,23.78667 c 0.117564,0.33726 0.486338,0.5157 0.82357,0.39741 0.33723,-0.11734 0.515184,-0.48662 0.397623,-0.82385 L 7.7011408,257.28171 H 183.81447 l -9.39473,22.89434 c -0.1359,0.33101 0.0236,0.70871 0.35281,0.84359 0.331,0.1359 0.70871,-0.0206 0.84362,-0.35282"
       style="fill:#e74c3c;fill-opacity:1;fill-rule:nonzero;stroke:none;stroke-width:0.1037633"
       id="path190"
       inkscape:connector-curvature="0"
       inkscape:export-xdpi="96"
       inkscape:export-ydpi="96" />
    <path
       d="M 59.342468,251.17735 H 23.336612 c -0.357466,0 -0.646862,0.28943 -0.646862,0.64748 0,0.35695 0.289396,0.64644 0.646862,0.64644 h 36.005856 c 0.357055,0 0.647178,-0.28942 0.647178,-0.64644 0,-0.358 -0.290132,-0.64748 -0.647178,-0.64748"
       style="fill:#e74c3c;fill-opacity:1;fill-rule:nonzero;stroke:none;stroke-width:0.1037633"
       id="path196"
       inkscape:connector-curvature="0"
       inkscape:export-xdpi="96"
       inkscape:export-ydpi="96" />
    <path
       d="M 59.654173,247.24784 H 28.68685 c -0.35746,0 -0.646857,0.28942 -0.646857,0.64747 0,0.35695 0.289397,0.64644 0.646857,0.64644 h 30.967323 c 0.357259,0 0.646754,-0.28943 0.646754,-0.64644 0,-0.35798 -0.289515,-0.64747 -0.646754,-0.64747"
       style="fill:#e74c3c;fill-opacity:1;fill-rule:nonzero;stroke:none;stroke-width:0.1037633"
       id="path198"
       inkscape:connector-curvature="0"
       inkscape:export-xdpi="96"
       inkscape:export-ydpi="96" />
    <path
       d="M 61.523262,243.31832 H 34.917531 c -0.357052,0 -0.646862,0.29059 -0.646862,0.64747 0,0.35696 0.289807,0.64644 0.646862,0.64644 h 26.605731 c 0.356942,0 0.646449,-0.28942 0.646449,-0.64644 0,-0.35693 -0.289488,-0.64747 -0.646449,-0.64747"
       style="fill:#e74c3c;fill-opacity:1;fill-rule:nonzero;stroke:none;stroke-width:0.1037633"
       id="path200"
       inkscape:connector-curvature="0"
       inkscape:export-xdpi="96"
       inkscape:export-ydpi="96" />
    <path
       d="m 127.52496,252.47127 h 36.00586 c 0.35696,0 0.64645,-0.28942 0.64645,-0.64644 0,-0.358 -0.28942,-0.64748 -0.64645,-0.64748 h -36.00586 c -0.35693,0 -0.64748,0.28943 -0.64748,0.64748 0,0.35695 0.29061,0.64644 0.64748,0.64644"
       style="fill:#e74c3c;fill-opacity:1;fill-rule:nonzero;stroke:none;stroke-width:0.1037633"
       id="path202"
       inkscape:connector-curvature="0"
       inkscape:export-xdpi="96"
       inkscape:export-ydpi="96" />
    <path
       d="m 127.21367,248.54175 h 30.96712 c 0.35696,0 0.64645,-0.28943 0.64645,-0.64644 0,-0.35798 -0.28942,-0.64747 -0.64645,-0.64747 h -30.96712 c -0.35695,0 -0.64643,0.28942 -0.64643,0.64747 0,0.35695 0.28942,0.64644 0.64643,0.64644"
       style="fill:#e74c3c;fill-opacity:1;fill-rule:nonzero;stroke:none;stroke-width:0.1037633"
       id="path204"
       inkscape:connector-curvature="0"
       inkscape:export-xdpi="96"
       inkscape:export-ydpi="96" />
    <path
       d="m 125.96747,244.61223 h 26.60493 c 0.35799,0 0.64747,-0.28942 0.64747,-0.64644 0,-0.35693 -0.28942,-0.64747 -0.64747,-0.64747 h -26.60493 c -0.35694,0 -0.64749,0.29059 -0.64749,0.64747 0,0.35696 0.29062,0.64644 0.64749,0.64644"
       style="fill:#e74c3c;fill-opacity:1;fill-rule:nonzero;stroke:none;stroke-width:0.1037633"
       id="path206"
       inkscape:connector-curvature="0"
       inkscape:export-xdpi="96"
       inkscape:export-ydpi="96" />
    <path
       d="M 28.68685,295.42512 H 1.3586166 l 5.1553725,-12.38726 v -0.24795 L 1.358202,270.3798 h 10.198475 c 0.178685,0 0.323428,-0.14412 0.323428,-0.32269 0,-0.17942 -0.144743,-0.32377 -0.323428,-0.32377 H 0.87393994 c -0.10821109,0 -0.20918639,0.0538 -0.26916054,0.14413 -0.0599709,0.0891 -0.0713882,0.20325 -0.0295575,0.30303 l 5.28984982,12.7338 -5.28984982,12.70998 c -0.0414166,0.0997 -0.0304134,0.21384 0.0295575,0.30298 0.0599709,0.0902 0.16094975,0.14412 0.26916054,0.14412 H 28.68685 c 0.178364,0 0.323119,-0.14529 0.323119,-0.32374 0,-0.17854 -0.144741,-0.32269 -0.323119,-0.32269"
       style="fill:#e74c3c;fill-opacity:1;fill-rule:nonzero;stroke:none;stroke-width:0.1037633"
       id="path208"
       inkscape:connector-curvature="0"
       inkscape:export-xdpi="96"
       inkscape:export-ydpi="96" />
    <path
       d="m 162.28464,296.84874 h 27.50141 c 0.53643,0 0.97019,-0.43371 0.97019,-0.97015 0,-0.53544 -0.43376,-0.9702 -0.97019,-0.9702 h -27.50141 c -0.53544,0 -0.97019,0.43476 -0.97019,0.9702 0,0.53644 0.43475,0.97015 0.97019,0.97015"
       style="fill:#e74c3c;fill-opacity:1;fill-rule:nonzero;stroke:none;stroke-width:0.1037633"
       id="path210"
       inkscape:connector-curvature="0"
       inkscape:export-xdpi="96"
       inkscape:export-ydpi="96" />
    <path
       d="m 162.59695,295.75199 h 27.81272 c 0.10799,0 0.20854,-0.0538 0.26883,-0.14412 0.06,-0.0902 0.0715,-0.20325 0.03,-0.30405 l -5.29088,-12.70994 5.29088,-12.73281 c 0.0414,-0.10064 0.0299,-0.21384 -0.03,-0.30402 -0.0599,-0.0902 -0.16088,-0.14413 -0.26883,-0.14413 H 179.7262 c -0.17853,0 -0.32269,0.14531 -0.32269,0.32373 0,0.17854 0.14413,0.32374 0.32269,0.32374 h 10.19889 l -5.15599,12.4101 v 0.24794 l 5.15497,12.38623 h -27.32712 c -0.17941,0 -0.32373,0.1453 -0.32373,0.32376 0,0.17853 0.14413,0.32372 0.32373,0.32372"
       style="fill:#e74c3c;fill-opacity:1;fill-rule:nonzero;stroke:none;stroke-width:0.1037633"
       id="path212"
       inkscape:connector-curvature="0"
       inkscape:export-xdpi="96"
       inkscape:export-ydpi="96" />
  </g>
</svg>
